<svg xmlns="http://www.w3.org/2000/svg" xmlns:xlink="http://www.w3.org/1999/xlink" version="1.0" x="0" y="0" width="2400" height="1111.2945191305519" viewBox="77.52679626464844 82.18126098632813 184.94640747070312 85.63747039794922" preserveAspectRatio="xMidYMid meet" color-interpolation-filters="sRGB"><g><defs><linearGradient id="92" x1="0%" y1="0%" x2="100%" y2="0%"><stop offset="0%" stop-color="#fa71cd"></stop> <stop offset="100%" stop-color="#9b59b6"></stop></linearGradient><linearGradient id="93" x1="0%" y1="0%" x2="100%" y2="0%"><stop offset="0%" stop-color="#f9d423"></stop> <stop offset="100%" stop-color="#f83600"></stop></linearGradient><linearGradient id="94" x1="0%" y1="0%" x2="100%" y2="0%"><stop offset="0%" stop-color="#0064d2"></stop> <stop offset="100%" stop-color="#1cb0f6"></stop></linearGradient><linearGradient id="95" x1="0%" y1="0%" x2="100%" y2="0%"><stop offset="0%" stop-color="#f00978"></stop> <stop offset="100%" stop-color="#3f51b1"></stop></linearGradient><linearGradient id="96" x1="0%" y1="0%" x2="100%" y2="0%"><stop offset="0%" stop-color="#7873f5"></stop> <stop offset="100%" stop-color="#ec77ab"></stop></linearGradient><linearGradient id="97" x1="0%" y1="0%" x2="100%" y2="0%"><stop offset="0%" stop-color="#f9d423"></stop> <stop offset="100%" stop-color="#e14fad"></stop></linearGradient><linearGradient id="98" x1="0%" y1="0%" x2="100%" y2="0%"><stop offset="0%" stop-color="#009efd"></stop> <stop offset="100%" stop-color="#2af598"></stop></linearGradient><linearGradient id="99" x1="0%" y1="0%" x2="100%" y2="0%"><stop offset="0%" stop-color="#ffcc00"></stop> <stop offset="100%" stop-color="#00b140"></stop></linearGradient><linearGradient id="100" x1="0%" y1="0%" x2="100%" y2="0%"><stop offset="0%" stop-color="#d51007"></stop> <stop offset="100%" stop-color="#ff8177"></stop></linearGradient><linearGradient id="102" x1="0%" y1="0%" x2="100%" y2="0%"><stop offset="0%" stop-color="#a2b6df"></stop> <stop offset="100%" stop-color="#0c3483"></stop></linearGradient><linearGradient id="103" x1="0%" y1="0%" x2="100%" y2="0%"><stop offset="0%" stop-color="#7ac5d8"></stop> <stop offset="100%" stop-color="#eea2a2"></stop></linearGradient><linearGradient id="104" x1="0%" y1="0%" x2="100%" y2="0%"><stop offset="0%" stop-color="#00ecbc"></stop> <stop offset="100%" stop-color="#007adf"></stop></linearGradient><linearGradient id="105" x1="0%" y1="0%" x2="100%" y2="0%"><stop offset="0%" stop-color="#b88746"></stop> <stop offset="100%" stop-color="#fdf5a6"></stop></linearGradient></defs><g fill="#343c3e" class="icon-text-wrapper icon-svg-group iconsvg" transform="translate(79.33999633789062,83.99446487426758)"><g class="iconsvg-imagesvg" transform="translate(60.660003662109375,0)"><g><rect fill="#343c3e" fill-opacity="0" stroke-width="2" x="0" y="0" width="60" height="60.47106963243668" class="image-rect"></rect> <svg x="0" y="0" width="60" height="60.47106963243668" filtersec="colorsb9908067583" class="image-svg-svg primary" style="overflow: visible;"><svg xmlns="http://www.w3.org/2000/svg" viewBox="0.04415839910507202 -0.0015540122985839844 98.1986083984375 98.96991729736328"><path d="M49.63 60a5.56 5.56 0 0 0-1.78-.56c-3.39-.6-6.77 0-10.15-.23-1.82-.12-2.77.85-3 2.75-1.56 10.83-3.19 21.65-4.82 32.46-.46 3.08-1.67 4.13-4.82 4.15H12.54c-2.88 0-3.64-.71-3.33-3.56.43-4.07 1.13-8.11 1.74-12.15.49-3.21 1.05-6.41 1.53-9.62.55-3.7 1-7.42 1.61-11.09.36-2-.36-2.88-2.21-2.9-2.66 0-5.33.07-8 .13-.7 0-1.41.12-2.11.12s-1.34 0-1.64-.72.25-1.19.67-1.65l17.8-19.6c2.76-3 5.46-6.11 8.27-9.09 2.09-2.22 3.24-2.22 4.85.29 4.83 7.55 9.52 15.2 14.28 22.8 1.19 1.92 2.43 3.81 3.63 5.72a2 2 0 0 0 .66.67" fill="#44D62C"></path><path d="M50.29 57.92a2.09 2.09 0 0 0 .89.3c9.06 1 16.54-2.65 21-10.61 5.69-10.15.42-22.74-10.78-26.69a15.3 15.3 0 0 0-5.2-.92h-49c-.67 0-1.51.23-1.93-.51s.16-1.24.56-1.69c4.46-4.9 8.68-10 13.51-14.56A12 12 0 0 1 27.7.15c12-.09 23.91-.32 35.85.06 7.88.24 14.85 3.48 21 8.47a34.74 34.74 0 0 1 12.34 19.09c4 16.16-.94 29.49-13.9 39.84-1.53 1.22-1.8 2.09-.75 3.81 4.86 8 9.58 16 14.35 24 .29.48.56 1 .86 1.46.79 1.29.16 1.86-1.07 2a29.38 29.38 0 0 1-3 .07H80.44a11.16 11.16 0 0 1-10.4-5.73c-3.56-6-7.1-12-10.7-18-2.79-4.66-5.65-9.27-8.45-13.93A3.43 3.43 0 0 0 49.63 60" fill="#343c3e"></path></svg></svg> </g></g> <g transform="translate(0,67.4710693359375)"><g fill-rule="" class="tp-name iconsvg-namesvg"><g transform="scale(1)"><g><path d="M1.37 0L4.1 0 4.1-4.99 7.27-4.99 9.91 0 12.98 0 9.69-5.45C11.41-6.3 12.18-8.16 12.18-9.67 12.18-12.52 10.4-14.13 7.21-14.13L1.37-14.13ZM4.1-7.25L4.1-11.75 6.91-11.75C8.72-11.75 9.61-11 9.61-9.61 9.61-8.12 8.56-7.25 6.93-7.25ZM36.24 0L38.91 0 38.91-14.13 36.3-14.13 36.3-4.4 36.2-4.4 29.38-14.13 14.3-14.13 14.3-11.49 28.39-11.49ZM27.34 0L29.98 0 29.98-6.08 27.34-9.85ZM24.76-5.82L24.76-8.32 14.3-8.32 14.3-5.82ZM14.3 0L24.76 0 24.76-2.67 14.3-2.67ZM40.4-14.13L40.4-11.49 51.63-11.49 51.63-14.13ZM44.66-9.69L44.66 0 47.39 0 47.39-9.69ZM61.95-11.95L61.95-14.13 59.2-14.13 59.2-11.95ZM59.2 0L61.93 0 61.93-10.1 59.2-10.1ZM63.46-14.13L63.46-11.49 74.69-11.49 74.69-14.13ZM67.72-9.69L67.72 0 70.45 0 70.45-9.69ZM82.26 0L85.03 0 85.03-5.73 91.97-5.73 91.97-8.18 85.03-8.18 85.03-11.49 92.68-11.49 92.68-14.13 82.26-14.13ZM101.06-14.34L101.06-11.75C103.72-11.75 105.74-10.22 105.74-7.07 105.74-3.92 103.72-2.36 101.06-2.36 98.47-2.36 96.48-3.92 96.48-7.07 96.48-7.07 93.73-7.07 93.73-7.07 93.73-2.4 96.98 0.2 101.06 0.2 105.24 0.2 108.47-2.2 108.47-7.07 108.47-11.71 105.24-14.34 101.06-14.34ZM110.59 0L113.32 0 113.32-4.99 116.49-4.99 119.13 0 122.2 0 118.91-5.45C120.63-6.3 121.39-8.16 121.39-9.67 121.39-12.52 119.62-14.13 116.43-14.13L110.59-14.13 110.59-11.75 116.12-11.75C117.94-11.75 118.83-11 118.83-9.61 118.83-8.12 117.78-7.25 116.14-7.25L110.59-7.25ZM136.07 0L138.92 0 144.09-14.13 141-14.13 137.75-3.67 137.61-3.67 134.32-14.13 131.57-14.13ZM127.03 0L129.89 0 132.2-7.07 130.94-10.72 128.74-3.67 128.6-3.67 125.09-14.13 122-14.13ZM150.71-14.13L147.26-14.13 142.19 0 145.14 0 148.89-11.21 149.1-11.21 153.11 0 156.26 0ZM157.74 0L160.46 0 160.46-4.99 163.63-4.99 166.28 0 169.35 0 166.06-5.45C167.77-6.3 168.54-8.16 168.54-9.67 168.54-12.52 166.76-14.13 163.57-14.13L157.74-14.13 157.74-11.75 163.27-11.75C165.09-11.75 165.98-11 165.98-9.61 165.98-8.12 164.93-7.25 163.29-7.25L157.74-7.25ZM170.68-14.13L170.68-11.49 175.63-11.49C178.03-11.49 179.83-10.56 179.83-7.07 179.83-3.55 178.05-2.67 175.65-2.67L170.68-2.67 170.68 0 176.52 0C180.82 0 182.69-3.07 182.69-7.07 182.69-11.09 180.82-14.13 176.52-14.13Z" transform="translate(-1.3700000047683716, 14.34000015258789)"></path></g> </g></g> </g></g><defs v-gra="od"></defs></g></svg>